<svg width="165" height="40" viewBox="0 0 165 40" fill="none" xmlns="http://www.w3.org/2000/svg">
<path d="M0.056529 39.8648C-0.0470462 39.5023 0.0254565 39.1191 0.015099 38.7565C0.00474145 38.5805 0.0979591 38.5287 0.253322 38.539C0.34654 38.5494 0.429399 38.539 0.522617 38.539C9.50259 38.539 18.4826 38.539 27.4625 38.539C27.97 38.539 27.9804 38.539 27.9597 39.0362C27.9493 39.3159 28.0218 39.6059 27.9079 39.8752C27.8457 39.8337 27.8561 39.7612 27.8665 39.6991C27.8665 39.668 27.8665 39.6369 27.8665 39.6059C27.8665 39.6266 27.8665 39.6577 27.8665 39.6784C27.8457 39.8959 27.68 39.8544 27.5454 39.8544C27.3382 39.8648 27.1311 39.8544 26.9239 39.8544C18.1408 39.8544 9.35758 39.8544 0.574405 39.8544C0.325824 39.8544 0.0047416 39.927 0.108317 39.4712C0.0668867 39.6059 0.149747 39.7405 0.056529 39.8648Z" fill="#BC983F"/>
<path d="M25.1426 23.0753C23.5993 22.2364 22.0664 21.3767 20.5231 20.5377C20.2435 20.3824 20.1399 20.2063 20.1399 19.8749C20.1502 15.0068 20.1502 10.1284 20.1606 5.2604C20.1606 4.92896 20.0777 4.73217 19.767 4.55609C17.4055 3.19926 15.044 1.83206 12.6928 0.454513C11.6674 -0.146223 11.6882 -0.146222 10.642 0.423441C8.05267 1.83206 5.47364 3.24069 2.86355 4.60788C2.52175 4.78396 2.45961 4.96004 2.45961 5.30183C2.46996 14.3336 2.46996 23.3757 2.46996 32.4075C2.46996 32.5007 2.48032 32.5939 2.46996 32.6768C2.43889 32.9253 2.53211 33.0289 2.79105 33.0186C3.10177 32.9978 3.4125 32.9978 3.72322 33.0186C4.05466 33.0496 4.13752 32.915 4.12717 32.6042C4.11681 30.4499 4.11681 28.2852 4.11681 26.1308C4.11681 19.4709 4.11681 12.8214 4.10645 6.16151C4.10645 5.85078 4.19967 5.68506 4.47932 5.5297C6.68547 4.33858 8.88127 3.13711 11.0667 1.91492C11.336 1.76992 11.5121 1.79063 11.7607 1.92528C13.9772 3.16818 16.204 4.41109 18.4309 5.64363C18.607 5.74721 18.7002 5.85078 18.7002 6.05793C18.6898 10.4288 18.6898 14.7997 18.7002 19.1602C18.7002 19.4606 18.6173 19.4916 18.3688 19.3466C17.5194 18.8598 16.6598 18.3834 15.8001 17.9173C14.4329 17.1612 13.0657 16.4155 11.6882 15.6594C11.5017 15.7526 11.5742 15.9286 11.5742 16.0737C11.5742 21.5528 11.5742 27.0319 11.5639 32.511C11.5639 32.7803 11.626 32.8839 11.8539 32.9046C11.7503 32.8943 11.6364 32.8839 11.5328 32.946C11.6571 33.06 11.8021 33.0082 11.9367 33.0082C14.5054 33.0082 17.0844 33.0082 19.6531 33.0186C20.0363 33.0186 20.1502 32.9357 20.1502 32.5317C20.1295 29.0931 20.1399 25.6544 20.1399 22.2157C20.1399 21.7703 20.1399 21.7806 20.5438 21.9878C21.6521 22.5678 22.7603 23.1685 23.8686 23.7382C24.1586 23.8832 24.2622 24.0593 24.2622 24.3907C24.2518 27.8916 24.2518 31.3924 24.2518 34.9036C24.2518 35.4215 24.2518 35.4215 23.7236 35.4215C16.9498 35.4215 10.176 35.4215 3.40214 35.4215C2.39746 35.4215 2.39746 35.4215 2.39746 36.4262C2.39746 36.944 2.39746 36.944 2.91534 36.944C10.2795 36.944 17.6541 36.944 25.0183 36.944C25.5258 36.944 25.5258 36.944 25.5258 36.4365C25.5258 32.2107 25.5258 27.9848 25.5362 23.7589C25.5569 23.4171 25.4326 23.2411 25.1426 23.0753ZM13.0243 24.7947C13.0243 22.7025 13.0243 20.6102 13.0243 18.5077C13.0243 18.0105 13.0243 18.0105 13.48 18.2487C15.1268 19.1188 16.7633 19.9888 18.4102 20.8588C18.607 20.9624 18.6898 21.0763 18.6898 21.3042C18.6795 24.6082 18.6795 27.9227 18.6898 31.2267C18.6898 31.5064 18.5966 31.5789 18.3273 31.5685C16.6701 31.5581 15.0233 31.5581 13.3661 31.5685C13.0553 31.5685 13.0036 31.4546 13.0036 31.1853C13.0243 29.062 13.0243 26.9283 13.0243 24.7947ZM19.6324 32.915C18.1409 32.9046 16.6494 32.915 15.1476 32.915C16.6287 32.915 18.1202 32.915 19.6117 32.915C19.6842 32.915 19.7256 32.915 19.7774 32.915C19.7256 32.915 19.6842 32.9253 19.6324 32.915ZM20.026 32.6457C20.026 32.6043 20.026 32.5628 20.026 32.5007C20.026 29.2484 20.026 25.9962 20.026 22.7439C20.026 25.9962 20.026 29.2588 20.0363 32.511C20.0363 32.5732 20.026 32.6043 20.026 32.6457Z" fill="#BC983F"/>
<path d="M33.0971 12.8836L32.9936 14.199L33.4182 23.3447C33.4286 23.614 33.3457 23.8315 33.1593 23.9972C32.9832 24.1733 32.7657 24.2561 32.5068 24.2561H31.4192C31.2431 24.2561 31.1292 24.225 31.0567 24.1525C30.9842 24.08 30.9531 23.9661 30.9531 23.79V8.5334C30.9531 8.36768 30.9738 8.26411 31.0256 8.20196C31.0774 8.13982 31.1913 8.10875 31.3778 8.10875H33.5114C33.7393 8.10875 33.9568 8.19161 34.1536 8.35733C34.3504 8.52305 34.4643 8.7302 34.485 8.98914L35.6969 20.341L36.8983 8.98914C36.9294 8.75091 37.0123 8.57483 37.1366 8.45054C37.2712 8.32625 37.4369 8.24339 37.6234 8.19161C37.8202 8.13982 38.0273 8.10875 38.2655 8.10875C38.4934 8.10875 38.7213 8.09839 38.9388 8.09839H39.9952C40.1817 8.09839 40.306 8.12946 40.3577 8.19161C40.4095 8.25375 40.4406 8.36768 40.4406 8.52305V23.7693C40.4406 23.9454 40.4095 24.0593 40.337 24.1318C40.2645 24.2043 40.1506 24.2354 39.9849 24.2354H38.8973C38.628 24.2354 38.4105 24.1525 38.2241 23.9765C38.048 23.8004 37.9548 23.5829 37.9652 23.3239L38.4105 14.1783L38.2862 12.8628L36.9605 23.7279C36.9398 23.9143 36.888 24.049 36.8155 24.1215C36.7326 24.194 36.598 24.225 36.4115 24.225H34.9718C34.7854 24.225 34.6508 24.194 34.5783 24.1215C34.5058 24.049 34.454 23.9143 34.4332 23.7279L33.0971 12.8836Z" fill="#BE9A3C"/>
<path d="M66.4483 23.79C66.4483 23.9661 66.4172 24.08 66.3654 24.1422C66.3136 24.2043 66.1893 24.2458 66.0132 24.2458H64.8739C64.6461 24.2458 64.4389 24.1629 64.2628 23.9868C64.0867 23.8107 63.9935 23.6036 63.9935 23.355V18.5906C63.9935 18.4145 63.921 18.2591 63.7864 18.1141C63.6517 17.9691 63.4549 17.8966 63.2064 17.8966H62.4192V23.3654C62.4192 23.614 62.326 23.8211 62.1499 23.9972C61.9635 24.1733 61.7563 24.2561 61.5181 24.2561H60.3891C60.213 24.2561 60.0887 24.225 60.037 24.1525C59.9852 24.0904 59.9541 23.9661 59.9541 23.8004V8.55412C59.9541 8.37804 59.9852 8.26411 60.037 8.20196C60.0887 8.13982 60.213 8.09839 60.3891 8.09839H63.2374C63.7553 8.09839 64.211 8.18125 64.6046 8.32626C64.9982 8.48162 65.34 8.67841 65.6093 8.93735C65.8786 9.19629 66.0857 9.4863 66.2308 9.81774C66.3758 10.1492 66.4483 10.5013 66.4483 10.8535V14.9758C66.4483 15.908 66.0754 16.5605 65.34 16.9541C65.7025 17.0991 65.9718 17.2959 66.1686 17.5548C66.355 17.8137 66.4586 18.1555 66.4586 18.5802V23.79H66.4483ZM62.4192 10.1803V15.8355H63.2581C63.5067 15.8355 63.6828 15.7422 63.8071 15.5454C63.921 15.359 63.9832 15.1519 63.9832 14.9344V10.8742C63.9832 10.7085 63.9107 10.5428 63.776 10.3978C63.6414 10.2528 63.4446 10.1803 63.196 10.1803H62.4192Z" fill="#BE9A3C"/>
<path d="M77.8622 23.7486C77.8415 23.935 77.7897 24.0697 77.7172 24.1422C77.6343 24.2147 77.4997 24.2458 77.3133 24.2458H74.9932C74.8171 24.2458 74.6824 24.2147 74.5996 24.1422C74.5167 24.0697 74.4649 23.935 74.4442 23.7486L72.9735 8.54376C72.9527 8.36768 72.9735 8.25375 73.0149 8.19161C73.0667 8.12946 73.1806 8.09839 73.367 8.09839H74.5064C74.7342 8.09839 74.9414 8.18125 75.1382 8.34697C75.335 8.51269 75.4489 8.71984 75.4696 8.97878L76.1429 21.0867L76.7954 8.97878C76.8161 8.71984 76.93 8.51269 77.1268 8.34697C77.3236 8.18125 77.5515 8.09839 77.7793 8.09839H78.9187C79.1051 8.09839 79.2294 8.12946 79.2708 8.19161C79.3226 8.25375 79.333 8.36768 79.3019 8.54376L77.8622 23.7486Z" fill="#BE9A3C"/>
<path d="M48.4884 8.60568C48.5091 8.41925 48.5609 8.2846 48.6334 8.2121C48.7163 8.13959 48.8509 8.10852 49.0374 8.10852H51.3575C51.5335 8.10852 51.6682 8.13959 51.751 8.2121C51.8339 8.2846 51.8857 8.41925 51.9064 8.60568L53.3772 23.8105C53.3979 23.9866 53.3772 24.1005 53.3357 24.1627C53.284 24.2248 53.17 24.2559 52.9836 24.2559H51.8443C51.6164 24.2559 51.4092 24.173 51.2125 24.0073C51.0157 23.8416 50.9017 23.6344 50.881 23.3755L50.2078 11.2676L49.5552 23.3755C49.5345 23.6344 49.4206 23.8416 49.2238 24.0073C49.0167 24.173 48.7991 24.2559 48.5713 24.2559H47.432C47.2455 24.2559 47.1212 24.2248 47.0798 24.1627C47.028 24.1005 47.0177 23.9866 47.0487 23.8105L48.4884 8.60568Z" fill="#BE9A3C"/>
<path d="M98.7015 24.5459C98.194 24.5459 97.7486 24.4734 97.3446 24.3283C96.9511 24.1833 96.6093 23.9969 96.3296 23.7483C96.05 23.4997 95.8324 23.2097 95.6771 22.8783C95.5217 22.5469 95.4492 22.1843 95.4492 21.8115V18.9424C95.4492 18.6731 95.5942 18.5489 95.8739 18.5489H97.0753C97.1686 18.5489 97.2618 18.5592 97.3654 18.5903C97.4689 18.6214 97.5518 18.6628 97.6347 18.7146C97.7175 18.7664 97.7797 18.8285 97.8315 18.9114C97.8832 18.9942 97.9143 19.0874 97.9143 19.191V21.7183C97.9143 21.8943 97.9868 22.0497 98.1215 22.1843C98.2561 22.3293 98.4529 22.4018 98.7015 22.4018C98.9501 22.4018 99.1469 22.3293 99.2815 22.1843C99.4162 22.0393 99.4887 21.884 99.4887 21.7183C99.4887 20.9 99.3954 20.1957 99.1883 19.6157C98.9915 19.0253 98.7429 18.4971 98.4425 18.0206C98.1422 17.5442 97.8211 17.0781 97.4793 16.6224C97.1271 16.1666 96.8061 15.6695 96.516 15.1205C96.2157 14.5716 95.9671 13.9294 95.7703 13.2044C95.5735 12.4793 95.4699 11.599 95.4699 10.5632C95.4699 10.18 95.5424 9.82782 95.6978 9.48602C95.8532 9.15458 96.0603 8.85421 96.34 8.61599C96.6093 8.36741 96.9511 8.17062 97.355 8.02561C97.7486 7.88061 98.194 7.80811 98.6808 7.80811C99.1779 7.80811 99.6233 7.88061 100.038 8.02561C100.452 8.17062 100.794 8.36741 101.073 8.61599C101.363 8.86457 101.581 9.15458 101.736 9.48602C101.892 9.82782 101.974 10.18 101.974 10.5632V13.6083C101.974 13.8776 101.829 14.0019 101.55 14.0019H100.348C100.162 14.0019 99.9651 13.9501 99.789 13.8362C99.6129 13.7222 99.5094 13.5669 99.5094 13.3494V10.6564C99.5094 10.4803 99.4369 10.3146 99.3022 10.1696C99.1676 10.0246 98.9708 9.95211 98.7222 9.95211C98.4633 9.95211 98.2768 10.035 98.1422 10.18C98.0075 10.3353 97.9454 10.4907 97.9454 10.6461C97.9454 11.2675 98.0075 11.8061 98.1215 12.2722C98.2354 12.7383 98.3908 13.1629 98.5772 13.5358C98.7636 13.919 98.9811 14.2712 99.2297 14.6026C99.4783 14.9341 99.7165 15.2655 99.9755 15.597C100.224 15.9284 100.473 16.2806 100.721 16.6638C100.97 17.047 101.177 17.482 101.374 17.9688C101.56 18.4556 101.716 19.0149 101.829 19.6467C101.943 20.2786 102.006 21.0036 102.006 21.8322C102.006 22.2154 101.923 22.5676 101.778 22.899C101.622 23.2304 101.415 23.5205 101.125 23.769C100.845 24.0176 100.504 24.2144 100.11 24.3491C99.6544 24.4733 99.209 24.5459 98.7015 24.5459Z" fill="#BE9A3C"/>
<path d="M112.86 24.1422C112.788 24.2147 112.653 24.2458 112.477 24.2458H110.985C110.809 24.2458 110.675 24.2147 110.602 24.1422C110.53 24.0697 110.499 23.935 110.499 23.7486V10.1906H109.629C108.893 10.1906 108.531 9.77631 108.531 8.9477V8.57484C108.531 8.41947 108.572 8.30554 108.655 8.22268C108.738 8.13982 108.852 8.09839 108.997 8.09839H114.383C114.528 8.09839 114.642 8.13982 114.725 8.22268C114.807 8.30554 114.849 8.41947 114.849 8.57484V8.9477C114.849 9.35165 114.756 9.65202 114.559 9.86953C114.372 10.087 114.103 10.1906 113.751 10.1906H112.964V23.7486C112.974 23.9454 112.943 24.0697 112.86 24.1422Z" fill="#BE9A3C"/>
<path d="M124.047 22.174C124.171 22.319 124.368 22.3915 124.647 22.3915C124.906 22.3915 125.103 22.319 125.238 22.1844C125.372 22.0497 125.435 21.884 125.435 21.7079V8.96816C125.435 8.71958 125.528 8.51243 125.704 8.34671C125.88 8.17063 126.087 8.08777 126.315 8.08777H127.454C127.63 8.08777 127.755 8.11884 127.806 8.19134C127.869 8.25349 127.889 8.37778 127.889 8.5435V21.8115C127.889 22.1636 127.817 22.5054 127.672 22.8265C127.527 23.158 127.32 23.448 127.05 23.7069C126.781 23.9658 126.45 24.1626 126.046 24.318C125.652 24.4734 125.186 24.5459 124.678 24.5459C124.161 24.5459 123.705 24.4734 123.301 24.3284C122.887 24.1834 122.545 23.9866 122.265 23.7276C121.986 23.479 121.768 23.189 121.613 22.8576C121.457 22.5262 121.385 22.1844 121.385 21.8115V8.55386C121.385 8.37778 121.416 8.26385 121.468 8.2017C121.519 8.13956 121.644 8.09813 121.82 8.09813H122.949C123.187 8.09813 123.394 8.18099 123.581 8.35706C123.757 8.52278 123.85 8.74029 123.85 8.97852V21.7183C123.86 21.8736 123.922 22.029 124.047 22.174Z" fill="#BE9A3C"/>
<path d="M135.409 24.2561C135.222 24.2561 135.108 24.225 135.056 24.1525C134.994 24.0904 134.974 23.9661 134.974 23.8004V8.57481C134.974 8.39873 135.005 8.2848 135.056 8.22266C135.108 8.16051 135.233 8.11908 135.409 8.11908H138.257C138.775 8.11908 139.241 8.20194 139.645 8.3573C140.049 8.51266 140.38 8.71982 140.65 8.98911C140.919 9.24805 141.116 9.54842 141.25 9.87986C141.385 10.2113 141.457 10.5531 141.457 10.8949V21.4906C141.457 21.9049 141.375 22.2675 141.219 22.6092C141.064 22.951 140.836 23.2411 140.556 23.4896C140.277 23.7382 139.925 23.9247 139.521 24.0697C139.117 24.2043 138.671 24.2768 138.184 24.2768H135.409V24.2561ZM138.267 22.1742C138.495 22.1742 138.671 22.1017 138.806 21.9464C138.93 21.791 138.992 21.6356 138.992 21.4803V10.8845C138.992 10.7085 138.92 10.5531 138.785 10.4081C138.651 10.2631 138.454 10.1906 138.205 10.1906H137.418V22.1742H138.267Z" fill="#BE9A3C"/>
<path d="M150.987 23.738C150.987 23.9245 150.945 24.0591 150.873 24.1316C150.8 24.2041 150.666 24.2455 150.489 24.2455H149.019C148.843 24.2455 148.708 24.2041 148.635 24.1316C148.563 24.0591 148.521 23.9245 148.521 23.738V9.00963C148.521 8.75069 148.615 8.54354 148.791 8.36746C148.967 8.19138 149.184 8.10852 149.412 8.10852H150.552C150.738 8.10852 150.862 8.13959 150.904 8.20174C150.956 8.26388 150.976 8.37782 150.976 8.53318V23.738H150.987Z" fill="#BE9A3C"/>
<path d="M158.081 10.5427C158.081 10.1802 158.154 9.8384 158.299 9.50696C158.444 9.17552 158.661 8.88551 158.941 8.62657C159.221 8.37799 159.563 8.17084 159.956 8.02584C160.35 7.87048 160.816 7.79797 161.323 7.79797C161.852 7.79797 162.307 7.87048 162.711 8.01548C163.115 8.16049 163.457 8.36764 163.726 8.61622C163.996 8.8648 164.213 9.15481 164.358 9.49661C164.503 9.82805 164.576 10.1802 164.576 10.5531V21.7806C164.576 22.1328 164.503 22.4746 164.358 22.806C164.213 23.1375 164.006 23.4378 163.726 23.6864C163.447 23.9453 163.115 24.1525 162.711 24.3079C162.307 24.4632 161.841 24.5461 161.323 24.5461C160.795 24.5461 160.319 24.4632 159.915 24.3079C159.511 24.1525 159.169 23.9453 158.9 23.6864C158.62 23.4275 158.413 23.1375 158.268 22.806C158.123 22.4746 158.05 22.1328 158.05 21.7806V10.5427H158.081ZM160.546 21.6978C160.546 21.8842 160.619 22.0499 160.764 22.1846C160.909 22.3192 161.106 22.3917 161.365 22.3917C161.613 22.3917 161.8 22.3192 161.924 22.1639C162.048 22.0085 162.11 21.8531 162.11 21.6874V10.6359C162.11 10.4599 162.048 10.3045 161.914 10.1595C161.779 10.0145 161.582 9.94198 161.323 9.94198C161.075 9.94198 160.888 10.0145 160.743 10.1595C160.609 10.3045 160.536 10.4599 160.536 10.6359V21.6978H160.546Z" fill="#BE9A3C"/>
<path d="M34.1575 32.5938H32.6423C32.578 32.7489 32.5231 32.887 32.4777 33.0081C32.4323 33.1253 32.3945 33.2275 32.3642 33.3145C32.3378 33.4015 32.3188 33.4753 32.3075 33.5358C32.2961 33.5963 32.2905 33.6455 32.2905 33.6834C32.2905 33.7893 32.3245 33.8631 32.3926 33.9047C32.4607 33.9425 32.5742 33.9614 32.7331 33.9614V34.1771H31.3541V33.9614C31.4411 33.9501 31.5149 33.9349 31.5755 33.916C31.6398 33.8971 31.6946 33.8706 31.74 33.8366C31.7892 33.8025 31.8308 33.759 31.8649 33.7061C31.9027 33.6493 31.9386 33.5812 31.9727 33.5018L33.4481 29.8075H33.6921L34.9803 33.0081C35.0673 33.2199 35.143 33.3902 35.2073 33.5188C35.2716 33.6436 35.3341 33.7382 35.3946 33.8025C35.4551 33.8668 35.5194 33.9085 35.5875 33.9274C35.6594 33.9463 35.7445 33.9557 35.8429 33.9557V34.1771H33.9929V33.9557C34.1934 33.9557 34.3315 33.9368 34.4072 33.899C34.4828 33.8612 34.5207 33.7987 34.5207 33.7117C34.5207 33.6739 34.5188 33.6398 34.515 33.6096C34.5112 33.5755 34.5036 33.5396 34.4923 33.5018C34.4847 33.4639 34.4715 33.4223 34.4526 33.3769C34.4374 33.3277 34.4166 33.271 34.3901 33.2067L34.1575 32.5938ZM32.7558 32.3101H34.0497L33.4198 30.636L32.7558 32.3101ZM39.5057 30.9027C39.5057 31.2054 39.4149 31.4569 39.2334 31.6575C39.0518 31.858 38.7623 31.9923 38.3651 32.0604L39.6192 33.5699C39.7214 33.6947 39.833 33.7855 39.9541 33.8423C40.0789 33.8952 40.2264 33.9349 40.3967 33.9614V34.1771H39.3015L37.9111 32.3952C37.8619 32.3309 37.8147 32.2798 37.7693 32.242C37.7276 32.2041 37.6822 32.1758 37.6331 32.1568C37.5877 32.1341 37.5328 32.1209 37.4685 32.1171C37.408 32.1095 37.3342 32.1058 37.2472 32.1058V33.2861C37.2472 33.4261 37.2547 33.5415 37.2699 33.6323C37.2888 33.7193 37.3247 33.7874 37.3777 33.8366C37.4344 33.8858 37.5139 33.9198 37.616 33.9387C37.722 33.9539 37.8601 33.9614 38.0303 33.9614V34.1771H36.0271V33.9614C36.1595 33.9576 36.2654 33.9463 36.3449 33.9274C36.4281 33.9085 36.4924 33.8763 36.5378 33.8309C36.5832 33.7855 36.6135 33.7212 36.6286 33.638C36.6438 33.5547 36.6513 33.4469 36.6513 33.3145V30.67C36.6513 30.5376 36.6438 30.4317 36.6286 30.3523C36.6173 30.269 36.5908 30.2047 36.5492 30.1593C36.5113 30.1101 36.4546 30.078 36.3789 30.0628C36.3033 30.0439 36.2049 30.0307 36.0838 30.0231V29.8075H37.8657C38.3878 29.8075 38.7907 29.9039 39.0745 30.0969C39.362 30.2898 39.5057 30.5584 39.5057 30.9027ZM37.2472 31.822H37.6501C38.0284 31.822 38.3084 31.7539 38.49 31.6177C38.6753 31.4778 38.768 31.2489 38.768 30.9311C38.768 30.6246 38.6942 30.4052 38.5467 30.2728C38.4029 30.1404 38.176 30.0742 37.8657 30.0742H37.3436C37.2793 30.0742 37.2472 30.1063 37.2472 30.1707V31.822ZM44.0818 29.8075H44.2407L44.2918 31.1127H44.0818C43.9986 30.7798 43.8378 30.5187 43.5995 30.3296C43.3611 30.1404 43.0736 30.0458 42.7369 30.0458C42.5061 30.0458 42.3 30.0912 42.1184 30.182C41.9368 30.2728 41.7835 30.4033 41.6587 30.5736C41.5339 30.7438 41.4374 30.9519 41.3693 31.1978C41.305 31.4437 41.2728 31.7218 41.2728 32.032C41.2728 32.6411 41.3996 33.1102 41.653 33.4393C41.9065 33.7647 42.2735 33.9274 42.7539 33.9274C43.4841 33.9274 43.9532 33.5396 44.1613 32.764H44.3939V34.1771H44.1953L44.0648 33.7288C43.6676 34.0655 43.1871 34.2338 42.6234 34.2338C42.3018 34.2338 42.0105 34.1827 41.7495 34.0806C41.4922 33.9784 41.2709 33.8347 41.0855 33.6493C40.904 33.4601 40.7621 33.2313 40.6599 32.9627C40.5616 32.6941 40.5124 32.3952 40.5124 32.066C40.5124 31.7218 40.5654 31.4078 40.6713 31.124C40.7772 30.8403 40.9248 30.5963 41.1139 30.392C41.3069 30.1877 41.5357 30.0307 41.8006 29.921C42.0692 29.8075 42.3643 29.7507 42.6858 29.7507C42.9128 29.7507 43.1266 29.7829 43.3271 29.8472C43.5276 29.9115 43.7451 30.0156 43.9797 30.1593L44.0818 29.8075ZM49.0913 33.2748C49.0913 33.4185 49.0989 33.5358 49.114 33.6266C49.1291 33.7136 49.1575 33.7817 49.1991 33.8309C49.2445 33.8763 49.3069 33.9085 49.3864 33.9274C49.4696 33.9463 49.5774 33.9576 49.7099 33.9614V34.1771H47.8712V33.9614C48.0036 33.9576 48.1096 33.9463 48.189 33.9274C48.2722 33.9085 48.3366 33.8763 48.382 33.8309C48.4273 33.7855 48.4576 33.7212 48.4727 33.638C48.4879 33.5547 48.4954 33.4469 48.4954 33.3145V32.0831H46.1972V33.2748C46.1972 33.4185 46.2047 33.5358 46.2199 33.6266C46.235 33.7136 46.2634 33.7817 46.305 33.8309C46.3504 33.8763 46.4128 33.9085 46.4922 33.9274C46.5755 33.9463 46.6833 33.9576 46.8157 33.9614V34.1771H44.9771V33.9614C45.1095 33.9576 45.2154 33.9463 45.2949 33.9274C45.3781 33.9085 45.4424 33.8763 45.4878 33.8309C45.5332 33.7855 45.5635 33.7212 45.5786 33.638C45.5937 33.5547 45.6013 33.4469 45.6013 33.3145V30.67C45.6013 30.5376 45.5937 30.4317 45.5786 30.3523C45.5673 30.269 45.5408 30.2047 45.4992 30.1593C45.4613 30.1101 45.4046 30.078 45.3289 30.0628C45.2533 30.0439 45.1549 30.0307 45.0338 30.0231V29.8075H46.759V30.0231C46.6379 30.0269 46.5395 30.0383 46.4639 30.0572C46.392 30.0761 46.3352 30.1101 46.2936 30.1593C46.2558 30.2085 46.2293 30.2766 46.2142 30.3636C46.2028 30.4506 46.1972 30.566 46.1972 30.7098V31.7993H48.4954V30.67C48.4954 30.5376 48.4879 30.4317 48.4727 30.3523C48.4614 30.269 48.4349 30.2047 48.3933 30.1593C48.3555 30.1101 48.2987 30.078 48.2231 30.0628C48.1474 30.0439 48.049 30.0307 47.928 30.0231V29.8075H49.6531V30.0231C49.532 30.0269 49.4337 30.0383 49.358 30.0572C49.2861 30.0761 49.2294 30.1101 49.1878 30.1593C49.1499 30.2085 49.1235 30.2766 49.1083 30.3636C49.097 30.4506 49.0913 30.566 49.0913 30.7098V33.2748ZM51.4452 33.1045C51.4452 33.2937 51.4528 33.4431 51.4679 33.5528C51.4831 33.6625 51.5114 33.7477 51.553 33.8082C51.5984 33.8687 51.6609 33.9085 51.7403 33.9274C51.8235 33.9463 51.9314 33.9576 52.0638 33.9614V34.1771H50.2251V33.9614C50.3576 33.9576 50.4635 33.9463 50.5429 33.9274C50.6262 33.9047 50.6905 33.8649 50.7359 33.8082C50.7813 33.7515 50.8115 33.672 50.8267 33.5699C50.8418 33.4639 50.8494 33.3221 50.8494 33.1443V30.8403C50.8494 30.6814 50.8418 30.5509 50.8267 30.4487C50.8153 30.3428 50.7888 30.2596 50.7472 30.199C50.7094 30.1385 50.6526 30.0969 50.577 30.0742C50.5013 30.0477 50.403 30.0307 50.2819 30.0231V29.8075H52.007V30.0231C51.886 30.0269 51.7876 30.042 51.7119 30.0685C51.6401 30.095 51.5833 30.1404 51.5417 30.2047C51.5039 30.2652 51.4774 30.3504 51.4623 30.4601C51.4509 30.5698 51.4452 30.7098 51.4452 30.88V33.1045ZM56.7854 30.8914H56.5528C56.5414 30.7287 56.5149 30.5925 56.4733 30.4828C56.4317 30.3731 56.3712 30.2879 56.2917 30.2274C56.2161 30.1631 56.1196 30.1177 56.0023 30.0912C55.885 30.0647 55.745 30.0515 55.5824 30.0515C55.4424 30.0515 55.3289 30.0553 55.2419 30.0628C55.1586 30.0666 55.0943 30.0761 55.0489 30.0912C55.0035 30.1063 54.9733 30.1253 54.9581 30.148C54.9468 30.1669 54.9411 30.1934 54.9411 30.2274V33.2634C54.9411 33.3845 54.9487 33.4885 54.9638 33.5755C54.9827 33.6625 55.0168 33.7344 55.066 33.7912C55.1189 33.8441 55.1927 33.8858 55.2873 33.916C55.3856 33.9425 55.5143 33.9576 55.6732 33.9614V34.1771H53.5281V33.9614C53.687 33.9576 53.8156 33.9425 53.914 33.916C54.0123 33.8858 54.0861 33.8441 54.1353 33.7912C54.1883 33.7344 54.2223 33.6625 54.2374 33.5755C54.2564 33.4885 54.2658 33.3845 54.2658 33.2634V30.2274C54.2658 30.1934 54.2582 30.1669 54.2431 30.148C54.2318 30.1253 54.2053 30.1063 54.1637 30.0912C54.1258 30.0761 54.071 30.0666 53.9991 30.0628C53.9272 30.0553 53.8307 30.0515 53.7097 30.0515C53.5621 30.0515 53.4241 30.0572 53.2954 30.0685C53.1706 30.0799 53.0609 30.1139 52.9663 30.1707C52.8755 30.2236 52.8017 30.3069 52.745 30.4204C52.6882 30.5339 52.658 30.6909 52.6542 30.8914H52.4442V29.8075H56.7287L56.7854 30.8914ZM58.3558 31.7766C58.5601 31.7766 58.7304 31.7653 58.8666 31.7426C59.0065 31.7161 59.1163 31.6764 59.1957 31.6234C59.2789 31.5704 59.3376 31.5023 59.3716 31.4191C59.4094 31.3359 59.4284 31.2375 59.4284 31.124H59.627V32.6732H59.4284C59.4284 32.5597 59.4113 32.4614 59.3773 32.3782C59.347 32.2949 59.2903 32.2268 59.207 32.1739C59.1276 32.1171 59.0179 32.0755 58.8779 32.049C58.7417 32.0188 58.5677 32.0036 58.3558 32.0036V33.2861C58.3558 33.411 58.371 33.515 58.4012 33.5982C58.4315 33.6777 58.4826 33.7439 58.5544 33.7969C58.6301 33.846 58.7285 33.882 58.8495 33.9047C58.9706 33.9236 59.12 33.933 59.2978 33.933C59.4984 33.933 59.6686 33.9198 59.8086 33.8933C59.9486 33.8631 60.0658 33.8139 60.1604 33.7458C60.255 33.6777 60.3307 33.5888 60.3874 33.4791C60.4441 33.3656 60.4914 33.2256 60.5293 33.0591H60.7449L60.6598 34.1771H57.1357V33.9614C57.2682 33.9576 57.3741 33.9463 57.4535 33.9274C57.5368 33.9085 57.6011 33.8763 57.6465 33.8309C57.6919 33.7855 57.7221 33.7212 57.7373 33.638C57.7524 33.5547 57.76 33.4469 57.76 33.3145V30.67C57.76 30.5376 57.7524 30.4317 57.7373 30.3523C57.7259 30.269 57.6994 30.2047 57.6578 30.1593C57.62 30.1101 57.5633 30.078 57.4876 30.0628C57.4119 30.0439 57.3136 30.0307 57.1925 30.0231V29.8075H60.4725L60.5236 30.8062H60.325C60.3023 30.6549 60.2644 30.532 60.2115 30.4374C60.1623 30.339 60.0923 30.2615 60.0015 30.2047C59.9145 30.148 59.8029 30.1082 59.6667 30.0855C59.5305 30.0628 59.3659 30.0515 59.173 30.0515H58.4523C58.388 30.0515 58.3558 30.0837 58.3558 30.148V31.7766ZM64.9079 29.8075H65.0667L65.1178 31.1127H64.9079C64.8246 30.7798 64.6638 30.5187 64.4255 30.3296C64.1872 30.1404 63.8996 30.0458 63.5629 30.0458C63.3322 30.0458 63.126 30.0912 62.9444 30.182C62.7628 30.2728 62.6096 30.4033 62.4847 30.5736C62.3599 30.7438 62.2634 30.9519 62.1953 31.1978C62.131 31.4437 62.0988 31.7218 62.0988 32.032C62.0988 32.6411 62.2256 33.1102 62.479 33.4393C62.7325 33.7647 63.0995 33.9274 63.58 33.9274C64.3101 33.9274 64.7792 33.5396 64.9873 32.764H65.22V34.1771H65.0214L64.8908 33.7288C64.4936 34.0655 64.0131 34.2338 63.4494 34.2338C63.1279 34.2338 62.8366 34.1827 62.5755 34.0806C62.3183 33.9784 62.0969 33.8347 61.9116 33.6493C61.73 33.4601 61.5881 33.2313 61.486 32.9627C61.3876 32.6941 61.3384 32.3952 61.3384 32.066C61.3384 31.7218 61.3914 31.4078 61.4973 31.124C61.6032 30.8403 61.7508 30.5963 61.9399 30.392C62.1329 30.1877 62.3618 30.0307 62.6266 29.921C62.8952 29.8075 63.1903 29.7507 63.5119 29.7507C63.7389 29.7507 63.9526 29.7829 64.1531 29.8472C64.3536 29.9115 64.5712 30.0156 64.8057 30.1593L64.9079 29.8075ZM70.0081 30.8914H69.7754C69.7641 30.7287 69.7376 30.5925 69.696 30.4828C69.6544 30.3731 69.5939 30.2879 69.5144 30.2274C69.4387 30.1631 69.3423 30.1177 69.225 30.0912C69.1077 30.0647 68.9677 30.0515 68.8051 30.0515C68.6651 30.0515 68.5516 30.0553 68.4646 30.0628C68.3813 30.0666 68.317 30.0761 68.2716 30.0912C68.2262 30.1063 68.196 30.1253 68.1808 30.148C68.1695 30.1669 68.1638 30.1934 68.1638 30.2274V33.2634C68.1638 33.3845 68.1714 33.4885 68.1865 33.5755C68.2054 33.6625 68.2395 33.7344 68.2887 33.7912C68.3416 33.8441 68.4154 33.8858 68.51 33.916C68.6083 33.9425 68.737 33.9576 68.8959 33.9614V34.1771H66.7508V33.9614C66.9097 33.9576 67.0383 33.9425 67.1367 33.916C67.235 33.8858 67.3088 33.8441 67.358 33.7912C67.411 33.7344 67.445 33.6625 67.4601 33.5755C67.4791 33.4885 67.4885 33.3845 67.4885 33.2634V30.2274C67.4885 30.1934 67.4809 30.1669 67.4658 30.148C67.4545 30.1253 67.428 30.1063 67.3864 30.0912C67.3485 30.0761 67.2937 30.0666 67.2218 30.0628C67.1499 30.0553 67.0534 30.0515 66.9324 30.0515C66.7848 30.0515 66.6468 30.0572 66.5181 30.0685C66.3933 30.0799 66.2836 30.1139 66.189 30.1707C66.0982 30.2236 66.0244 30.3069 65.9677 30.4204C65.9109 30.5339 65.8807 30.6909 65.8769 30.8914H65.6669V29.8075H69.9514L70.0081 30.8914ZM74.2003 32.4179C74.2003 32.7168 74.17 32.9797 74.1095 33.2067C74.0527 33.4337 73.9581 33.6228 73.8257 33.7742C73.6971 33.9255 73.5288 34.0409 73.3207 34.1203C73.1126 34.196 72.861 34.2338 72.5659 34.2338C72.286 34.2338 72.042 34.2073 71.8339 34.1544C71.6258 34.0976 71.4518 34.0068 71.3118 33.882C71.1718 33.7533 71.0678 33.5869 70.9997 33.3826C70.9316 33.1783 70.8975 32.9267 70.8975 32.6278V31.1297C70.8975 30.8497 70.89 30.6341 70.8748 30.4828C70.8635 30.3314 70.8257 30.2198 70.7614 30.148C70.716 30.0988 70.6535 30.0666 70.5741 30.0515C70.4984 30.0326 70.3963 30.0231 70.2676 30.0231V29.8075H72.2027V30.0231C72.0741 30.0231 71.9701 30.0307 71.8906 30.0458C71.8112 30.061 71.7488 30.0988 71.7034 30.1593C71.6504 30.2274 71.6164 30.3371 71.6012 30.4885C71.5861 30.636 71.5785 30.8497 71.5785 31.1297V32.6732C71.5785 32.8662 71.5974 33.0383 71.6353 33.1897C71.6769 33.3372 71.7431 33.4639 71.8339 33.5699C71.9247 33.672 72.042 33.7496 72.1857 33.8025C72.3333 33.8555 72.513 33.882 72.7248 33.882C73.1031 33.882 73.3869 33.7779 73.576 33.5699C73.7652 33.358 73.8598 33.0478 73.8598 32.6392V31.2716C73.8598 30.9349 73.8465 30.6795 73.8201 30.5055C73.7936 30.3314 73.7444 30.2085 73.6725 30.1366C73.6196 30.0874 73.5533 30.0572 73.4739 30.0458C73.3945 30.0307 73.2961 30.0231 73.1788 30.0231V29.8075H74.8245V30.0231C74.7034 30.0231 74.6032 30.0326 74.5237 30.0515C74.4481 30.0704 74.3875 30.112 74.3421 30.1763C74.2854 30.2558 74.2476 30.3806 74.2286 30.5509C74.2097 30.7173 74.2003 30.9576 74.2003 31.2716V32.4179ZM78.7249 30.9027C78.7249 31.2054 78.6341 31.4569 78.4526 31.6575C78.271 31.858 77.9815 31.9923 77.5843 32.0604L78.8384 33.5699C78.9406 33.6947 79.0522 33.7855 79.1732 33.8423C79.2981 33.8952 79.4456 33.9349 79.6159 33.9614V34.1771H78.5206L77.1303 32.3952C77.0811 32.3309 77.0339 32.2798 76.9885 32.242C76.9468 32.2041 76.9014 32.1758 76.8523 32.1568C76.8069 32.1341 76.752 32.1209 76.6877 32.1171C76.6272 32.1095 76.5534 32.1058 76.4664 32.1058V33.2861C76.4664 33.4261 76.4739 33.5415 76.4891 33.6323C76.508 33.7193 76.5439 33.7874 76.5969 33.8366C76.6536 33.8858 76.7331 33.9198 76.8352 33.9387C76.9412 33.9539 77.0793 33.9614 77.2495 33.9614V34.1771H75.2463V33.9614C75.3787 33.9576 75.4846 33.9463 75.5641 33.9274C75.6473 33.9085 75.7116 33.8763 75.757 33.8309C75.8024 33.7855 75.8327 33.7212 75.8478 33.638C75.863 33.5547 75.8705 33.4469 75.8705 33.3145V30.67C75.8705 30.5376 75.863 30.4317 75.8478 30.3523C75.8365 30.269 75.81 30.2047 75.7684 30.1593C75.7305 30.1101 75.6738 30.078 75.5981 30.0628C75.5225 30.0439 75.4241 30.0307 75.303 30.0231V29.8075H77.0849C77.607 29.8075 78.0099 29.9039 78.2937 30.0969C78.5812 30.2898 78.7249 30.5584 78.7249 30.9027ZM76.4664 31.822H76.8693C77.2476 31.822 77.5276 31.7539 77.7092 31.6177C77.8945 31.4778 77.9872 31.2489 77.9872 30.9311C77.9872 30.6246 77.9134 30.4052 77.7659 30.2728C77.6221 30.1404 77.3952 30.0742 77.0849 30.0742H76.5628C76.4985 30.0742 76.4664 30.1063 76.4664 30.1707V31.822ZM80.9386 31.7766C81.1429 31.7766 81.3131 31.7653 81.4493 31.7426C81.5893 31.7161 81.699 31.6764 81.7785 31.6234C81.8617 31.5704 81.9203 31.5023 81.9544 31.4191C81.9922 31.3359 82.0111 31.2375 82.0111 31.124H82.2097V32.6732H82.0111C82.0111 32.5597 81.9941 32.4614 81.9601 32.3782C81.9298 32.2949 81.873 32.2268 81.7898 32.1739C81.7104 32.1171 81.6007 32.0755 81.4607 32.049C81.3245 32.0188 81.1505 32.0036 80.9386 32.0036V33.2861C80.9386 33.411 80.9537 33.515 80.984 33.5982C81.0143 33.6777 81.0653 33.7439 81.1372 33.7969C81.2129 33.846 81.3112 33.882 81.4323 33.9047C81.5534 33.9236 81.7028 33.933 81.8806 33.933C82.0811 33.933 82.2514 33.9198 82.3913 33.8933C82.5313 33.8631 82.6486 33.8139 82.7432 33.7458C82.8378 33.6777 82.9134 33.5888 82.9702 33.4791C83.0269 33.3656 83.0742 33.2256 83.112 33.0591H83.3277L83.2426 34.1771H79.7185V33.9614C79.8509 33.9576 79.9569 33.9463 80.0363 33.9274C80.1195 33.9085 80.1838 33.8763 80.2292 33.8309C80.2746 33.7855 80.3049 33.7212 80.32 33.638C80.3352 33.5547 80.3427 33.4469 80.3427 33.3145V30.67C80.3427 30.5376 80.3352 30.4317 80.32 30.3523C80.3087 30.269 80.2822 30.2047 80.2406 30.1593C80.2028 30.1101 80.146 30.078 80.0704 30.0628C79.9947 30.0439 79.8963 30.0307 79.7753 30.0231V29.8075H83.0553L83.1064 30.8062H82.9077C82.885 30.6549 82.8472 30.532 82.7942 30.4374C82.7451 30.339 82.6751 30.2615 82.5843 30.2047C82.4973 30.148 82.3857 30.1082 82.2495 30.0855C82.1133 30.0628 81.9487 30.0515 81.7558 30.0515H81.0351C80.9708 30.0515 80.9386 30.0837 80.9386 30.148V31.7766ZM86.2598 29.5237V35.5958H85.8058V29.5237H86.2598ZM89.9606 33.1045C89.9606 33.2937 89.9682 33.4431 89.9833 33.5528C89.9984 33.6625 90.0268 33.7477 90.0684 33.8082C90.1138 33.8687 90.1763 33.9085 90.2557 33.9274C90.3389 33.9463 90.4468 33.9576 90.5792 33.9614V34.1771H88.7405V33.9614C88.8729 33.9576 88.9789 33.9463 89.0583 33.9274C89.1416 33.9047 89.2059 33.8649 89.2513 33.8082C89.2967 33.7515 89.3269 33.672 89.3421 33.5699C89.3572 33.4639 89.3648 33.3221 89.3648 33.1443V30.8403C89.3648 30.6814 89.3572 30.5509 89.3421 30.4487C89.3307 30.3428 89.3042 30.2596 89.2626 30.199C89.2248 30.1385 89.168 30.0969 89.0924 30.0742C89.0167 30.0477 88.9183 30.0307 88.7973 30.0231V29.8075H90.5224V30.0231C90.4014 30.0269 90.303 30.042 90.2273 30.0685C90.1555 30.095 90.0987 30.1404 90.0571 30.2047C90.0193 30.2652 89.9928 30.3504 89.9776 30.4601C89.9663 30.5698 89.9606 30.7098 89.9606 30.88V33.1045ZM94.7787 34.2338L92.0832 30.6814H92.0605V33.1045C92.0605 33.2937 92.0662 33.4431 92.0775 33.5528C92.0927 33.6625 92.1191 33.7477 92.157 33.8082C92.1986 33.8687 92.2553 33.9085 92.3272 33.9274C92.4029 33.9463 92.5013 33.9576 92.6223 33.9614V34.1771H91.0958V33.9614C91.2282 33.9576 91.3341 33.9463 91.4136 33.9274C91.4968 33.9047 91.5611 33.8649 91.6065 33.8082C91.6519 33.7515 91.6822 33.672 91.6973 33.5699C91.7125 33.4639 91.72 33.3221 91.72 33.1443V30.8403C91.72 30.6814 91.7125 30.5509 91.6973 30.4487C91.686 30.3428 91.6595 30.2596 91.6179 30.199C91.58 30.1385 91.5233 30.0969 91.4476 30.0742C91.372 30.0477 91.2736 30.0307 91.1525 30.0231V29.8075H92.2762L94.756 33.1159H94.7787V30.88C94.7787 30.6946 94.7712 30.5471 94.756 30.4374C94.7447 30.3239 94.7182 30.2369 94.6766 30.1763C94.6388 30.1158 94.582 30.0761 94.5063 30.0572C94.4345 30.0383 94.338 30.0269 94.2169 30.0231V29.8075H95.7434V30.0231C95.611 30.0269 95.5032 30.0401 95.42 30.0628C95.3405 30.0818 95.2781 30.1196 95.2327 30.1763C95.1873 30.2331 95.1571 30.3144 95.1419 30.4204C95.1268 30.5263 95.1192 30.6663 95.1192 30.8403V34.2338H94.7787ZM100.421 30.8914H100.189C100.177 30.7287 100.151 30.5925 100.109 30.4828C100.068 30.3731 100.007 30.2879 99.9277 30.2274C99.852 30.1631 99.7556 30.1177 99.6383 30.0912C99.521 30.0647 99.381 30.0515 99.2184 30.0515C99.0784 30.0515 98.9649 30.0553 98.8779 30.0628C98.7946 30.0666 98.7303 30.0761 98.6849 30.0912C98.6395 30.1063 98.6093 30.1253 98.5941 30.148C98.5828 30.1669 98.5771 30.1934 98.5771 30.2274V33.2634C98.5771 33.3845 98.5847 33.4885 98.5998 33.5755C98.6187 33.6625 98.6528 33.7344 98.702 33.7912C98.7549 33.8441 98.8287 33.8858 98.9233 33.916C99.0216 33.9425 99.1503 33.9576 99.3092 33.9614V34.1771H97.1641V33.9614C97.323 33.9576 97.4516 33.9425 97.55 33.916C97.6483 33.8858 97.7221 33.8441 97.7713 33.7912C97.8243 33.7344 97.8583 33.6625 97.8734 33.5755C97.8924 33.4885 97.9018 33.3845 97.9018 33.2634V30.2274C97.9018 30.1934 97.8942 30.1669 97.8791 30.148C97.8678 30.1253 97.8413 30.1063 97.7997 30.0912C97.7618 30.0761 97.707 30.0666 97.6351 30.0628C97.5632 30.0553 97.4667 30.0515 97.3457 30.0515C97.1981 30.0515 97.0601 30.0572 96.9314 30.0685C96.8066 30.0799 96.6969 30.1139 96.6023 30.1707C96.5115 30.2236 96.4377 30.3069 96.381 30.4204C96.3242 30.5339 96.294 30.6909 96.2902 30.8914H96.0802V29.8075H100.365L100.421 30.8914ZM101.992 31.7766C102.196 31.7766 102.366 31.7653 102.503 31.7426C102.643 31.7161 102.752 31.6764 102.832 31.6234C102.915 31.5704 102.974 31.5023 103.008 31.4191C103.045 31.3359 103.064 31.2375 103.064 31.124H103.263V32.6732H103.064C103.064 32.5597 103.047 32.4614 103.013 32.3782C102.983 32.2949 102.926 32.2268 102.843 32.1739C102.764 32.1171 102.654 32.0755 102.514 32.049C102.378 32.0188 102.204 32.0036 101.992 32.0036V33.2861C101.992 33.411 102.007 33.515 102.037 33.5982C102.067 33.6777 102.119 33.7439 102.19 33.7969C102.266 33.846 102.364 33.882 102.486 33.9047C102.607 33.9236 102.756 33.933 102.934 33.933C103.134 33.933 103.305 33.9198 103.445 33.8933C103.585 33.8631 103.702 33.8139 103.796 33.7458C103.891 33.6777 103.967 33.5888 104.023 33.4791C104.08 33.3656 104.127 33.2256 104.165 33.0591H104.381L104.296 34.1771H100.772V33.9614C100.904 33.9576 101.01 33.9463 101.09 33.9274C101.173 33.9085 101.237 33.8763 101.282 33.8309C101.328 33.7855 101.358 33.7212 101.373 33.638C101.388 33.5547 101.396 33.4469 101.396 33.3145V30.67C101.396 30.5376 101.388 30.4317 101.373 30.3523C101.362 30.269 101.335 30.2047 101.294 30.1593C101.256 30.1101 101.199 30.078 101.124 30.0628C101.048 30.0439 100.95 30.0307 100.828 30.0231V29.8075H104.109L104.16 30.8062H103.961C103.938 30.6549 103.9 30.532 103.847 30.4374C103.798 30.339 103.728 30.2615 103.638 30.2047C103.55 30.148 103.439 30.1082 103.303 30.0855C103.167 30.0628 103.002 30.0515 102.809 30.0515H102.088C102.024 30.0515 101.992 30.0837 101.992 30.148V31.7766ZM108.368 30.9027C108.368 31.2054 108.277 31.4569 108.096 31.6575C107.914 31.858 107.625 31.9923 107.227 32.0604L108.481 33.5699C108.584 33.6947 108.695 33.7855 108.816 33.8423C108.941 33.8952 109.089 33.9349 109.259 33.9614V34.1771H108.164L106.773 32.3952C106.724 32.3309 106.677 32.2798 106.631 32.242C106.59 32.2041 106.544 32.1758 106.495 32.1568C106.45 32.1341 106.395 32.1209 106.331 32.1171C106.27 32.1095 106.196 32.1058 106.109 32.1058V33.2861C106.109 33.4261 106.117 33.5415 106.132 33.6323C106.151 33.7193 106.187 33.7874 106.24 33.8366C106.297 33.8858 106.376 33.9198 106.478 33.9387C106.584 33.9539 106.722 33.9614 106.892 33.9614V34.1771H104.889V33.9614C105.022 33.9576 105.128 33.9463 105.207 33.9274C105.29 33.9085 105.355 33.8763 105.4 33.8309C105.445 33.7855 105.476 33.7212 105.491 33.638C105.506 33.5547 105.514 33.4469 105.514 33.3145V30.67C105.514 30.5376 105.506 30.4317 105.491 30.3523C105.479 30.269 105.453 30.2047 105.411 30.1593C105.374 30.1101 105.317 30.078 105.241 30.0628C105.165 30.0439 105.067 30.0307 104.946 30.0231V29.8075H106.728C107.25 29.8075 107.653 29.9039 107.937 30.0969C108.224 30.2898 108.368 30.5584 108.368 30.9027ZM106.109 31.822H106.512C106.891 31.822 107.171 31.7539 107.352 31.6177C107.538 31.4778 107.63 31.2489 107.63 30.9311C107.63 30.6246 107.556 30.4052 107.409 30.2728C107.265 30.1404 107.038 30.0742 106.728 30.0742H106.206C106.142 30.0742 106.109 30.1063 106.109 30.1707V31.822ZM110.582 33.1045C110.582 33.2937 110.589 33.4431 110.604 33.5528C110.619 33.6625 110.648 33.7477 110.689 33.8082C110.735 33.8687 110.797 33.9085 110.877 33.9274C110.96 33.9463 111.068 33.9576 111.2 33.9614V34.1771H109.362V33.9614C109.494 33.9576 109.6 33.9463 109.679 33.9274C109.763 33.9047 109.827 33.8649 109.872 33.8082C109.918 33.7515 109.948 33.672 109.963 33.5699C109.978 33.4639 109.986 33.3221 109.986 33.1443V30.8403C109.986 30.6814 109.978 30.5509 109.963 30.4487C109.952 30.3428 109.925 30.2596 109.884 30.199C109.846 30.1385 109.789 30.0969 109.713 30.0742C109.638 30.0477 109.539 30.0307 109.418 30.0231V29.8075H111.143V30.0231C111.022 30.0269 110.924 30.042 110.848 30.0685C110.776 30.095 110.72 30.1404 110.678 30.2047C110.64 30.2652 110.614 30.3504 110.599 30.4601C110.587 30.5698 110.582 30.7098 110.582 30.88V33.1045ZM114.068 29.7507C114.401 29.7507 114.711 29.8094 114.999 29.9266C115.286 30.0439 115.536 30.2047 115.748 30.409C115.96 30.6133 116.126 30.8535 116.247 31.1297C116.368 31.4059 116.429 31.7047 116.429 32.0263C116.429 32.3328 116.366 32.6203 116.241 32.8889C116.12 33.1575 115.954 33.3921 115.742 33.5926C115.53 33.7893 115.281 33.9463 114.993 34.0636C114.705 34.1771 114.397 34.2338 114.068 34.2338C113.739 34.2338 113.431 34.1771 113.143 34.0636C112.855 33.9463 112.606 33.7893 112.394 33.5926C112.182 33.3921 112.014 33.1575 111.889 32.8889C111.768 32.6203 111.707 32.3328 111.707 32.0263C111.707 31.7047 111.768 31.4059 111.889 31.1297C112.01 30.8535 112.176 30.6133 112.388 30.409C112.6 30.2047 112.85 30.0439 113.137 29.9266C113.425 29.8094 113.735 29.7507 114.068 29.7507ZM114.068 33.9217C114.318 33.9217 114.541 33.8782 114.738 33.7912C114.938 33.7042 115.108 33.5793 115.248 33.4166C115.392 33.254 115.502 33.0572 115.577 32.8265C115.653 32.5919 115.691 32.3309 115.691 32.0433C115.691 31.7407 115.653 31.4683 115.577 31.2262C115.502 30.9803 115.394 30.7722 115.254 30.6019C115.114 30.4279 114.944 30.2955 114.743 30.2047C114.543 30.1101 114.318 30.0628 114.068 30.0628C113.818 30.0628 113.593 30.1101 113.393 30.2047C113.192 30.2955 113.022 30.4279 112.882 30.6019C112.742 30.7722 112.634 30.9803 112.559 31.2262C112.483 31.4683 112.445 31.7407 112.445 32.0433C112.445 32.3309 112.483 32.5919 112.559 32.8265C112.634 33.0572 112.742 33.254 112.882 33.4166C113.022 33.5793 113.192 33.7042 113.393 33.7912C113.593 33.8782 113.818 33.9217 114.068 33.9217ZM120.416 30.9027C120.416 31.2054 120.325 31.4569 120.143 31.6575C119.962 31.858 119.672 31.9923 119.275 32.0604L120.529 33.5699C120.631 33.6947 120.743 33.7855 120.864 33.8423C120.989 33.8952 121.136 33.9349 121.307 33.9614V34.1771H120.211L118.821 32.3952C118.772 32.3309 118.725 32.2798 118.679 32.242C118.638 32.2041 118.592 32.1758 118.543 32.1568C118.498 32.1341 118.443 32.1209 118.379 32.1171C118.318 32.1095 118.244 32.1058 118.157 32.1058V33.2861C118.157 33.4261 118.165 33.5415 118.18 33.6323C118.199 33.7193 118.235 33.7874 118.288 33.8366C118.344 33.8858 118.424 33.9198 118.526 33.9387C118.632 33.9539 118.77 33.9614 118.94 33.9614V34.1771H116.937V33.9614C117.07 33.9576 117.175 33.9463 117.255 33.9274C117.338 33.9085 117.402 33.8763 117.448 33.8309C117.493 33.7855 117.524 33.7212 117.539 33.638C117.554 33.5547 117.561 33.4469 117.561 33.3145V30.67C117.561 30.5376 117.554 30.4317 117.539 30.3523C117.527 30.269 117.501 30.2047 117.459 30.1593C117.421 30.1101 117.365 30.078 117.289 30.0628C117.213 30.0439 117.115 30.0307 116.994 30.0231V29.8075H118.776C119.298 29.8075 119.701 29.9039 119.984 30.0969C120.272 30.2898 120.416 30.5584 120.416 30.9027ZM118.157 31.822H118.56C118.938 31.822 119.218 31.7539 119.4 31.6177C119.585 31.4778 119.678 31.2489 119.678 30.9311C119.678 30.6246 119.604 30.4052 119.457 30.2728C119.313 30.1404 119.086 30.0742 118.776 30.0742H118.254C118.189 30.0742 118.157 30.1063 118.157 30.1707V31.822ZM123.645 29.5237V35.5958H123.191V29.5237H123.645ZM127.345 33.2748C127.345 33.4185 127.353 33.5358 127.368 33.6266C127.387 33.7136 127.425 33.7817 127.482 33.8309C127.538 33.8763 127.618 33.9085 127.72 33.9274C127.826 33.9463 127.964 33.9576 128.134 33.9614V34.1771H126.125V33.9614C126.258 33.9576 126.364 33.9463 126.443 33.9274C126.526 33.9085 126.591 33.8763 126.636 33.8309C126.682 33.7855 126.712 33.7212 126.727 33.638C126.742 33.5547 126.75 33.4469 126.75 33.3145V30.67C126.75 30.5376 126.742 30.4317 126.727 30.3523C126.716 30.269 126.689 30.2047 126.647 30.1593C126.61 30.1101 126.553 30.078 126.477 30.0628C126.402 30.0439 126.303 30.0307 126.182 30.0231V29.8075H129.462L129.525 30.8914H129.326C129.303 30.7287 129.267 30.5963 129.218 30.4941C129.169 30.3882 129.099 30.305 129.008 30.2444C128.921 30.1839 128.81 30.1423 128.673 30.1196C128.537 30.0931 128.367 30.0799 128.163 30.0799H127.442C127.378 30.0799 127.345 30.112 127.345 30.1763V31.8901C127.527 31.8901 127.682 31.8807 127.811 31.8618C127.943 31.8391 128.051 31.8012 128.134 31.7483C128.221 31.6953 128.287 31.6234 128.333 31.5326C128.378 31.4418 128.407 31.3245 128.418 31.1808H128.617V32.8435H128.418C128.399 32.6997 128.369 32.5806 128.327 32.486C128.286 32.3914 128.223 32.3176 128.14 32.2647C128.061 32.2117 127.956 32.1739 127.828 32.1512C127.699 32.1285 127.538 32.1171 127.345 32.1171V33.2748ZM133.769 32.4179C133.769 32.7168 133.739 32.9797 133.678 33.2067C133.621 33.4337 133.527 33.6228 133.394 33.7742C133.266 33.9255 133.097 34.0409 132.889 34.1203C132.681 34.196 132.43 34.2338 132.135 34.2338C131.855 34.2338 131.611 34.2073 131.403 34.1544C131.194 34.0976 131.02 34.0068 130.88 33.882C130.74 33.7533 130.636 33.5869 130.568 33.3826C130.5 33.1783 130.466 32.9267 130.466 32.6278V31.1297C130.466 30.8497 130.459 30.6341 130.443 30.4828C130.432 30.3314 130.394 30.2198 130.33 30.148C130.285 30.0988 130.222 30.0666 130.143 30.0515C130.067 30.0326 129.965 30.0231 129.836 30.0231V29.8075H131.771V30.0231C131.643 30.0231 131.539 30.0307 131.459 30.0458C131.38 30.061 131.317 30.0988 131.272 30.1593C131.219 30.2274 131.185 30.3371 131.17 30.4885C131.155 30.636 131.147 30.8497 131.147 31.1297V32.6732C131.147 32.8662 131.166 33.0383 131.204 33.1897C131.246 33.3372 131.312 33.4639 131.403 33.5699C131.493 33.672 131.611 33.7496 131.754 33.8025C131.902 33.8555 132.082 33.882 132.293 33.882C132.672 33.882 132.956 33.7779 133.145 33.5699C133.334 33.358 133.428 33.0478 133.428 32.6392V31.2716C133.428 30.9349 133.415 30.6795 133.389 30.5055C133.362 30.3314 133.313 30.2085 133.241 30.1366C133.188 30.0874 133.122 30.0572 133.043 30.0458C132.963 30.0307 132.865 30.0231 132.747 30.0231V29.8075H134.393V30.0231C134.272 30.0231 134.172 30.0326 134.092 30.0515C134.017 30.0704 133.956 30.112 133.911 30.1763C133.854 30.2558 133.816 30.3806 133.797 30.5509C133.778 30.7173 133.769 30.9576 133.769 31.2716V32.4179ZM138.294 30.9027C138.294 31.2054 138.203 31.4569 138.021 31.6575C137.84 31.858 137.55 31.9923 137.153 32.0604L138.407 33.5699C138.509 33.6947 138.621 33.7855 138.742 33.8423C138.867 33.8952 139.014 33.9349 139.185 33.9614V34.1771H138.089L136.699 32.3952C136.65 32.3309 136.602 32.2798 136.557 32.242C136.515 32.2041 136.47 32.1758 136.421 32.1568C136.375 32.1341 136.321 32.1209 136.256 32.1171C136.196 32.1095 136.122 32.1058 136.035 32.1058V33.2861C136.035 33.4261 136.043 33.5415 136.058 33.6323C136.077 33.7193 136.113 33.7874 136.166 33.8366C136.222 33.8858 136.302 33.9198 136.404 33.9387C136.51 33.9539 136.648 33.9614 136.818 33.9614V34.1771H134.815V33.9614C134.947 33.9576 135.053 33.9463 135.133 33.9274C135.216 33.9085 135.28 33.8763 135.326 33.8309C135.371 33.7855 135.401 33.7212 135.416 33.638C135.432 33.5547 135.439 33.4469 135.439 33.3145V30.67C135.439 30.5376 135.432 30.4317 135.416 30.3523C135.405 30.269 135.379 30.2047 135.337 30.1593C135.299 30.1101 135.242 30.078 135.167 30.0628C135.091 30.0439 134.993 30.0307 134.872 30.0231V29.8075H136.654C137.176 29.8075 137.579 29.9039 137.862 30.0969C138.15 30.2898 138.294 30.5584 138.294 30.9027ZM136.035 31.822H136.438C136.816 31.822 137.096 31.7539 137.278 31.6177C137.463 31.4778 137.556 31.2489 137.556 30.9311C137.556 30.6246 137.482 30.4052 137.335 30.2728C137.191 30.1404 136.964 30.0742 136.654 30.0742H136.131C136.067 30.0742 136.035 30.1063 136.035 30.1707V31.822ZM142.97 34.2338L140.275 30.6814H140.252V33.1045C140.252 33.2937 140.258 33.4431 140.269 33.5528C140.284 33.6625 140.31 33.7477 140.348 33.8082C140.39 33.8687 140.447 33.9085 140.519 33.9274C140.594 33.9463 140.693 33.9576 140.814 33.9614V34.1771H139.287V33.9614C139.42 33.9576 139.525 33.9463 139.605 33.9274C139.688 33.9047 139.752 33.8649 139.798 33.8082C139.843 33.7515 139.874 33.672 139.889 33.5699C139.904 33.4639 139.911 33.3221 139.911 33.1443V30.8403C139.911 30.6814 139.904 30.5509 139.889 30.4487C139.877 30.3428 139.851 30.2596 139.809 30.199C139.771 30.1385 139.715 30.0969 139.639 30.0742C139.563 30.0477 139.465 30.0307 139.344 30.0231V29.8075H140.467L142.947 33.1159H142.97V30.88C142.97 30.6946 142.963 30.5471 142.947 30.4374C142.936 30.3239 142.91 30.2369 142.868 30.1763C142.83 30.1158 142.773 30.0761 142.698 30.0572C142.626 30.0383 142.529 30.0269 142.408 30.0231V29.8075H143.935V30.0231C143.802 30.0269 143.695 30.0401 143.611 30.0628C143.532 30.0818 143.469 30.1196 143.424 30.1763C143.379 30.2331 143.348 30.3144 143.333 30.4204C143.318 30.5263 143.311 30.6663 143.311 30.8403V34.2338H142.97ZM145.628 33.1045C145.628 33.2937 145.635 33.4431 145.651 33.5528C145.666 33.6625 145.694 33.7477 145.736 33.8082C145.781 33.8687 145.843 33.9085 145.923 33.9274C146.006 33.9463 146.114 33.9576 146.246 33.9614V34.1771H144.408V33.9614C144.54 33.9576 144.646 33.9463 144.726 33.9274C144.809 33.9047 144.873 33.8649 144.918 33.8082C144.964 33.7515 144.994 33.672 145.009 33.5699C145.024 33.4639 145.032 33.3221 145.032 33.1443V30.8403C145.032 30.6814 145.024 30.5509 145.009 30.4487C144.998 30.3428 144.971 30.2596 144.93 30.199C144.892 30.1385 144.835 30.0969 144.76 30.0742C144.684 30.0477 144.586 30.0307 144.464 30.0231V29.8075H146.19V30.0231C146.069 30.0269 145.97 30.042 145.895 30.0685C145.823 30.095 145.766 30.1404 145.724 30.2047C145.686 30.2652 145.66 30.3504 145.645 30.4601C145.634 30.5698 145.628 30.7098 145.628 30.88V33.1045ZM150.968 30.8914H150.735C150.724 30.7287 150.698 30.5925 150.656 30.4828C150.614 30.3731 150.554 30.2879 150.474 30.2274C150.399 30.1631 150.302 30.1177 150.185 30.0912C150.068 30.0647 149.928 30.0515 149.765 30.0515C149.625 30.0515 149.511 30.0553 149.424 30.0628C149.341 30.0666 149.277 30.0761 149.232 30.0912C149.186 30.1063 149.156 30.1253 149.141 30.148C149.129 30.1669 149.124 30.1934 149.124 30.2274V33.2634C149.124 33.3845 149.131 33.4885 149.146 33.5755C149.165 33.6625 149.199 33.7344 149.249 33.7912C149.302 33.8441 149.375 33.8858 149.47 33.916C149.568 33.9425 149.697 33.9576 149.856 33.9614V34.1771H147.711V33.9614C147.87 33.9576 147.998 33.9425 148.097 33.916C148.195 33.8858 148.269 33.8441 148.318 33.7912C148.371 33.7344 148.405 33.6625 148.42 33.5755C148.439 33.4885 148.448 33.3845 148.448 33.2634V30.2274C148.448 30.1934 148.441 30.1669 148.426 30.148C148.414 30.1253 148.388 30.1063 148.346 30.0912C148.308 30.0761 148.254 30.0666 148.182 30.0628C148.11 30.0553 148.013 30.0515 147.892 30.0515C147.745 30.0515 147.607 30.0572 147.478 30.0685C147.353 30.0799 147.243 30.1139 147.149 30.1707C147.058 30.2236 146.984 30.3069 146.928 30.4204C146.871 30.5339 146.841 30.6909 146.837 30.8914H146.627V29.8075H150.911L150.968 30.8914ZM155.16 32.4179C155.16 32.7168 155.13 32.9797 155.069 33.2067C155.013 33.4337 154.918 33.6228 154.786 33.7742C154.657 33.9255 154.489 34.0409 154.281 34.1203C154.073 34.196 153.821 34.2338 153.526 34.2338C153.246 34.2338 153.002 34.2073 152.794 34.1544C152.586 34.0976 152.412 34.0068 152.272 33.882C152.132 33.7533 152.028 33.5869 151.96 33.3826C151.891 33.1783 151.857 32.9267 151.857 32.6278V31.1297C151.857 30.8497 151.85 30.6341 151.835 30.4828C151.823 30.3314 151.786 30.2198 151.721 30.148C151.676 30.0988 151.613 30.0666 151.534 30.0515C151.458 30.0326 151.356 30.0231 151.228 30.0231V29.8075H153.163V30.0231C153.034 30.0231 152.93 30.0307 152.851 30.0458C152.771 30.061 152.709 30.0988 152.663 30.1593C152.61 30.2274 152.576 30.3371 152.561 30.4885C152.546 30.636 152.538 30.8497 152.538 31.1297V32.6732C152.538 32.8662 152.557 33.0383 152.595 33.1897C152.637 33.3372 152.703 33.4639 152.794 33.5699C152.885 33.672 153.002 33.7496 153.146 33.8025C153.293 33.8555 153.473 33.882 153.685 33.882C154.063 33.882 154.347 33.7779 154.536 33.5699C154.725 33.358 154.82 33.0478 154.82 32.6392V31.2716C154.82 30.9349 154.806 30.6795 154.78 30.5055C154.753 30.3314 154.704 30.2085 154.632 30.1366C154.579 30.0874 154.513 30.0572 154.434 30.0458C154.354 30.0307 154.256 30.0231 154.139 30.0231V29.8075H155.784V30.0231C155.663 30.0231 155.563 30.0326 155.484 30.0515C155.408 30.0704 155.347 30.112 155.302 30.1763C155.245 30.2558 155.207 30.3806 155.189 30.5509C155.17 30.7173 155.16 30.9576 155.16 31.2716V32.4179ZM159.685 30.9027C159.685 31.2054 159.594 31.4569 159.412 31.6575C159.231 31.858 158.941 31.9923 158.544 32.0604L159.798 33.5699C159.9 33.6947 160.012 33.7855 160.133 33.8423C160.258 33.8952 160.406 33.9349 160.576 33.9614V34.1771H159.481L158.09 32.3952C158.041 32.3309 157.994 32.2798 157.948 32.242C157.907 32.2041 157.861 32.1758 157.812 32.1568C157.767 32.1341 157.712 32.1209 157.648 32.1171C157.587 32.1095 157.513 32.1058 157.426 32.1058V33.2861C157.426 33.4261 157.434 33.5415 157.449 33.6323C157.468 33.7193 157.504 33.7874 157.557 33.8366C157.614 33.8858 157.693 33.9198 157.795 33.9387C157.901 33.9539 158.039 33.9614 158.209 33.9614V34.1771H156.206V33.9614C156.339 33.9576 156.445 33.9463 156.524 33.9274C156.607 33.9085 156.672 33.8763 156.717 33.8309C156.762 33.7855 156.793 33.7212 156.808 33.638C156.823 33.5547 156.83 33.4469 156.83 33.3145V30.67C156.83 30.5376 156.823 30.4317 156.808 30.3523C156.796 30.269 156.77 30.2047 156.728 30.1593C156.69 30.1101 156.634 30.078 156.558 30.0628C156.482 30.0439 156.384 30.0307 156.263 30.0231V29.8075H158.045C158.567 29.8075 158.97 29.9039 159.254 30.0969C159.541 30.2898 159.685 30.5584 159.685 30.9027ZM157.426 31.822H157.829C158.208 31.822 158.487 31.7539 158.669 31.6177C158.854 31.4778 158.947 31.2489 158.947 30.9311C158.947 30.6246 158.873 30.4052 158.726 30.2728C158.582 30.1404 158.355 30.0742 158.045 30.0742H157.523C157.458 30.0742 157.426 30.1063 157.426 30.1707V31.822ZM161.898 31.7766C162.103 31.7766 162.273 31.7653 162.409 31.7426C162.549 31.7161 162.659 31.6764 162.738 31.6234C162.822 31.5704 162.88 31.5023 162.914 31.4191C162.952 31.3359 162.971 31.2375 162.971 31.124H163.17V32.6732H162.971C162.971 32.5597 162.954 32.4614 162.92 32.3782C162.89 32.2949 162.833 32.2268 162.75 32.1739C162.67 32.1171 162.561 32.0755 162.421 32.049C162.284 32.0188 162.11 32.0036 161.898 32.0036V33.2861C161.898 33.411 161.914 33.515 161.944 33.5982C161.974 33.6777 162.025 33.7439 162.097 33.7969C162.173 33.846 162.271 33.882 162.392 33.9047C162.513 33.9236 162.663 33.933 162.841 33.933C163.041 33.933 163.211 33.9198 163.351 33.8933C163.491 33.8631 163.608 33.8139 163.703 33.7458C163.798 33.6777 163.873 33.5888 163.93 33.4791C163.987 33.3656 164.034 33.2256 164.072 33.0591H164.288L164.202 34.1771H160.678V33.9614C160.811 33.9576 160.917 33.9463 160.996 33.9274C161.079 33.9085 161.144 33.8763 161.189 33.8309C161.235 33.7855 161.265 33.7212 161.28 33.638C161.295 33.5547 161.303 33.4469 161.303 33.3145V30.67C161.303 30.5376 161.295 30.4317 161.28 30.3523C161.269 30.269 161.242 30.2047 161.2 30.1593C161.163 30.1101 161.106 30.078 161.03 30.0628C160.955 30.0439 160.856 30.0307 160.735 30.0231V29.8075H164.015L164.066 30.8062H163.868C163.845 30.6549 163.807 30.532 163.754 30.4374C163.705 30.339 163.635 30.2615 163.544 30.2047C163.457 30.148 163.346 30.1082 163.209 30.0855C163.073 30.0628 162.909 30.0515 162.716 30.0515H161.995C161.931 30.0515 161.898 30.0837 161.898 30.148V31.7766Z" fill="#BE9A3C"/>
</svg>
